<svg xmlns="http://www.w3.org/2000/svg" viewBox="0 0 72 21.3" width="72" height="21.3">
  <polygon points="59.95,7.772 62.928,11.054 65.795,7.772 71.917,7.772 65.934,14.5 71.999,21.283 65.63,21.283 62.68,17.975 59.757,21.283 53.607,21.283 59.619,14.528 53.607,7.772" fill="#ff6600" />
  <polygon points="53.607,7.772 53.607,12.337 46.798,12.337 46.798,16.526 53.607,16.526 53.607,21.283 41.794,21.283 41.794,0 53.607,0 53.607,4.744 46.798,4.744 46.798,7.772" fill="#ff6600" />
  <path d="M 36.811,0 V 8.71 H 36.756 C 35.652,7.442 34.274,7.001 32.675,7.001 c -3.276,0 -5.744,2.228 -6.61,5.172 C 25.076,8.929 22.528,6.94 18.75,6.94 c -3.068,0 -5.491,1.377 -6.755,3.621 V 7.772 H 5.653 V 4.744 h 6.921 V 0 H 0 v 21.283 h 5.653 v -8.946 h 5.635 c -0.168,0.657 -0.258,1.361 -0.258,2.104 0,4.439 3.392,7.555 7.72,7.555 3.64,0 6.039,-1.709 7.307,-4.824 h -4.845 c -0.655,0.937 -1.152,1.214 -2.462,1.214 -1.519,0 -2.829,-1.325 -2.829,-2.896 h 9.865 c 0.428,3.526 3.175,6.567 6.944,6.567 1.626,0 3.115,-0.8 4.025,-2.15 h 0.055 v 1.378 h 4.983 V 0 H 36.811 z M 16.079,12.4 c 0.314,-1.352 1.363,-2.235 2.672,-2.235 1.441,0 2.436,0.856 2.698,2.235 0.11,0 -5.37,0 -5.37,0 z m 17.707,5.643 c -1.837,0 -2.979,-1.712 -2.979,-3.499 0,-1.91 0.993,-3.747 2.979,-3.747 2.059,0 2.879,1.837 2.879,3.747 0,1.811 -0.869,3.499 -2.879,3.499 z" fill="#4d148c" />
</svg>
